<?xml version="1.0" encoding="UTF-8"?>
<svg version="1.1" xmlns="http://www.w3.org/2000/svg" width="512" height="512">
<path d="M0 0 C168.96 0 337.92 0 512 0 C512 168.96 512 337.92 512 512 C343.04 512 174.08 512 0 512 C0 343.04 0 174.08 0 0 Z " fill="#121112" transform="translate(0,0)"/>
<path d="M0 0 C7.47470594 -0.07601104 14.94931236 -0.1285835 22.42431641 -0.16479492 C24.96764857 -0.17988936 27.51095467 -0.20036688 30.05419922 -0.22631836 C33.7080732 -0.26267177 37.36160329 -0.27971997 41.015625 -0.29296875 C42.15429016 -0.30845261 43.29295532 -0.32393646 44.46612549 -0.33988953 C45.52692322 -0.34011612 46.58772095 -0.34034271 47.68066406 -0.34057617 C48.61332092 -0.34723801 49.54597778 -0.35389984 50.50689697 -0.36076355 C53.52276275 0.07564619 54.87480805 0.82714636 57 3 C57.50120544 4.92832947 57.50120544 4.92832947 57.50170898 7.13256836 C57.51108994 7.96030258 57.52047089 8.7880368 57.53013611 9.64085388 C57.51890213 10.53152054 57.50766815 11.42218719 57.49609375 12.33984375 C57.49754898 13.2583461 57.49900421 14.17684845 57.50050354 15.1231842 C57.49884351 17.06579764 57.48727063 19.00842407 57.46655273 20.95092773 C57.43764171 23.92293281 57.44593271 26.89314973 57.45898438 29.86523438 C57.45274562 31.75261283 57.44435361 33.63998565 57.43359375 35.52734375 C57.43652939 36.41598618 57.43946503 37.3046286 57.44248962 38.22019958 C57.34905216 44.3408913 57.34905216 44.3408913 55.66040039 47.52954102 C52.64844286 50.19694584 49.72173686 50.12281292 45.88598633 50.11352539 C44.84513382 50.11344986 43.80428131 50.11337433 42.73188782 50.11329651 C41.60993515 50.10813522 40.48798248 50.10297394 39.33203125 50.09765625 C37.60710701 50.09553383 37.60710701 50.09553383 35.84733582 50.09336853 C32.16903092 50.08776429 28.49078655 50.07521104 24.8125 50.0625 C22.32096442 50.05748555 19.82942789 50.05292255 17.33789062 50.04882812 C11.22523971 50.03779347 5.11262418 50.02105118 -1 50 C4.45761632 43.39379314 4.45761632 43.39379314 7.4375 40.875 C8.10910156 40.30394531 8.78070313 39.73289063 9.47265625 39.14453125 C10.30667969 38.43683594 11.14070313 37.72914063 12 37 C13.18732152 35.96352531 14.37342145 34.92565031 15.55859375 33.88671875 C16.83056475 32.7784571 18.10270111 31.67038522 19.375 30.5625 C19.99431396 30.01770996 20.61362793 29.47291992 21.25170898 28.91162109 C25.77331368 25 25.77331368 25 28 25 C28 24.34 28 23.68 28 23 C27.27039063 22.75378906 26.54078125 22.50757813 25.7890625 22.25390625 C22.6984326 20.86442138 20.8285513 19.26386052 18.375 16.9375 C13.83019756 12.71342686 9.11150484 8.79860753 4.25 4.9453125 C2 3 2 3 0 0 Z " fill="#F8F8F8" transform="translate(108,214)"/>
<path d="M0 0 C1.98 0.33 3.96 0.66 6 1 C6 14.53 6 28.06 6 42 C1.05 42 -3.9 42 -9 42 C-9.495 36.06 -9.495 36.06 -10 30 C-13.19199167 32.41556126 -15.74716687 34.68003538 -18 38 C-22.27344643 37.52517262 -24.13528225 35.00795363 -27 32 C-28.32 31.01 -29.64 30.02 -31 29 C-31 32.96 -31 36.92 -31 41 C-34.96 41 -38.92 41 -43 41 C-43 27.8 -43 14.6 -43 1 C-41.02 1 -39.04 1 -37 1 C-37 1.66 -37 2.32 -37 3 C-36.11006348 3.400979 -36.11006348 3.400979 -35.20214844 3.81005859 C-32.97066755 5.01584993 -31.5335201 6.2358095 -29.765625 8.0390625 C-28.90517578 8.90917969 -28.90517578 8.90917969 -28.02734375 9.796875 C-27.44082031 10.40015625 -26.85429687 11.0034375 -26.25 11.625 C-25.64800781 12.23601562 -25.04601562 12.84703125 -24.42578125 13.4765625 C-22.94594695 14.97988624 -21.47235324 16.48934856 -20 18 C-15.90124293 16.55860377 -13.94083037 15.0425691 -11.25 11.578125 C-9.35857348 9.19019902 -7.17884009 7.12436909 -5 5 C-4.195625 4.05125 -3.39125 3.1025 -2.5625 2.125 C-1.716875 1.42375 -0.87125 0.7225 0 0 Z " fill="#F7F7F7" transform="translate(365,214)"/>
<path d="M0 0 C4.71049512 2.73803158 8.32850981 7.04412318 10.04296875 12.1875 C10.86469253 19.5291305 9.66692461 25.73306881 6.04296875 32.1875 C3.73046875 34.625 3.73046875 34.625 1.04296875 36.1875 C0.05296875 36.765 -0.93703125 37.3425 -1.95703125 37.9375 C-8.10893874 40.34184812 -15.56022661 40.61799226 -21.65625 38.05078125 C-27.30192229 34.49540746 -30.83038136 30.56744967 -32.95703125 24.1875 C-33.68297855 17.18729389 -33.64296336 11.59991321 -29.38671875 5.8046875 C-21.56976275 -3.03744306 -10.8386946 -4.10646353 0 0 Z " fill="#F5F5F5" transform="translate(288.95703125,268.8125)"/>
<path d="M0 0 C5.4759375 -0.0928125 5.4759375 -0.0928125 11.0625 -0.1875 C12.76805054 -0.22846802 12.76805054 -0.22846802 14.50805664 -0.27026367 C22.14004845 -0.3326615 27.0325204 0.41134758 32.9375 5.5625 C35.55617939 9.02814501 35.58917112 12.35776522 35.359375 16.58984375 C34.86445938 19.90900612 33.95740349 22.27361656 32 25 C29.8125 25.875 29.8125 25.875 28 26 C29.548621 29.25210409 31.14558672 32.21214065 33.1875 35.1875 C35 38 35 38 35 41 C33.06318839 41.08107583 31.1254066 41.13922475 29.1875 41.1875 C28.10855469 41.22230469 27.02960938 41.25710938 25.91796875 41.29296875 C23 41 23 41 21.21875 39.70703125 C18.66213045 36.12612502 17 32.40394183 17 28 C15.68 28 14.36 28 13 28 C13 32.29 13 36.58 13 41 C8.71 41 4.42 41 0 41 C0 27.47 0 13.94 0 0 Z " fill="#F0F0F0" transform="translate(218,267)"/>
<path d="M0 0 C3.3125 0.625 3.3125 0.625 4.8671875 2.28125 C7.47588601 6.11995662 9.56414665 10.1265912 11.6015625 14.2890625 C14.78296719 20.7042897 18.53697666 26.73716378 22.29101562 32.828125 C22.80986328 33.67890625 23.32871094 34.5296875 23.86328125 35.40625 C24.33419189 36.17001953 24.80510254 36.93378906 25.2902832 37.72070312 C26.3125 39.625 26.3125 39.625 26.3125 41.625 C20.0425 41.625 13.7725 41.625 7.3125 41.625 C6.9825 40.635 6.6525 39.645 6.3125 38.625 C2.0225 38.295 -2.2675 37.965 -6.6875 37.625 C-7.0175 38.945 -7.3475 40.265 -7.6875 41.625 C-13.2975 41.625 -18.9075 41.625 -24.6875 41.625 C-23.06295542 36.75136625 -21.23170857 32.7521153 -18.6875 28.375 C-17.8847592 26.9730325 -17.08270389 25.57067233 -16.28125 24.16796875 C-15.65089844 23.068479 -15.65089844 23.068479 -15.0078125 21.94677734 C-12.24752843 17.09280148 -9.56649867 12.19411737 -6.875 7.30175781 C-3.25624734 0.75726682 -3.25624734 0.75726682 0 0 Z " fill="#F1F0F1" transform="translate(415.6875,214.375)"/>
<path d="M0 0 C4.62 0 9.24 0 14 0 C14.06058594 1.86527344 14.12117187 3.73054687 14.18359375 5.65234375 C14.2679781 8.0807379 14.35262714 10.50912287 14.4375 12.9375 C14.47681641 14.16919922 14.51613281 15.40089844 14.55664062 16.66992188 C14.61948242 18.4246582 14.61948242 18.4246582 14.68359375 20.21484375 C14.72025146 21.29886475 14.75690918 22.38288574 14.79467773 23.49975586 C14.72364265 25.939263 14.72364265 25.939263 16 27 C18.45809998 27.2500773 18.45809998 27.2500773 21 27 C23.63991268 24.36008732 23.30240797 23.02053704 23.4140625 19.3359375 C23.45273438 18.21445313 23.49140625 17.09296875 23.53125 15.9375 C23.5621875 14.761875 23.593125 13.58625 23.625 12.375 C23.66367188 11.19164062 23.70234375 10.00828125 23.7421875 8.7890625 C23.83668504 5.85963861 23.91943999 2.9298403 24 0 C27.96 0 31.92 0 36 0 C36.07451364 4.3049777 36.12877223 8.60960734 36.16479492 12.91503906 C36.17982196 14.37767075 36.20024955 15.84025782 36.22631836 17.30273438 C36.26297267 19.4128728 36.27978676 21.52241226 36.29296875 23.6328125 C36.3086792 24.90012207 36.32438965 26.16743164 36.34057617 27.47314453 C35.96868086 31.32432709 34.99886482 33.71098377 33 37 C27.9342419 40.94706985 21.81935693 41.57720119 15.58203125 41.32421875 C9.91681054 40.61285216 5.67151097 38.4874023 2 34 C-0.3305634 30.38809514 -0.2312222 27.2842191 -0.1953125 23.046875 C-0.1924826 22.38665344 -0.18965271 21.72643188 -0.18673706 21.04620361 C-0.17558415 18.94728103 -0.15048946 16.84879258 -0.125 14.75 C-0.11496384 13.32292285 -0.1058391 11.89583898 -0.09765625 10.46875 C-0.07736623 6.97886677 -0.03821077 3.48991662 0 0 Z " fill="#F9F8F8" transform="translate(212,215)"/>
<path d="M0 0 C5.9709375 -0.1546875 5.9709375 -0.1546875 12.0625 -0.3125 C13.30394775 -0.35802002 14.54539551 -0.40354004 15.82446289 -0.45043945 C24.9977033 -0.56526238 24.9977033 -0.56526238 29.24609375 2.26953125 C33.23157596 6.22109446 33.18117504 9.45641083 33.3125 14.9375 C33.27464184 18.82269402 33.18245641 20.66211776 31.3125 24.125 C25.57382098 28.77798299 20.08067559 28.17061869 13 28 C13 31.96 13 35.92 13 40 C8.71 40 4.42 40 0 40 C0 26.8 0 13.6 0 0 Z " fill="#F6F6F6" transform="translate(181,268)"/>
<path d="M0 0 C0 3.63 0 7.26 0 11 C-5.445 10.505 -5.445 10.505 -11 10 C-11 11.32 -11 12.64 -11 14 C-10.41992188 14.13535156 -9.83984375 14.27070313 -9.2421875 14.41015625 C-3.93705788 15.87213092 -0.40023801 17.59427352 2.9609375 22.03515625 C4.88880259 25.68070564 4.72360526 27.92149761 4 32 C1.8125 34.75 1.8125 34.75 -1 37 C-1.70511719 37.69867188 -2.41023438 38.39734375 -3.13671875 39.1171875 C-7.04748309 41.68879516 -10.05413341 41.52320216 -14.625 41.375 C-15.388125 41.37371094 -16.15125 41.37242187 -16.9375 41.37109375 C-20.78316331 41.31037275 -22.73774626 41.17483583 -26 39 C-26.41820365 34.97409284 -26.12945079 31.05612469 -26 27 C-20.06 27.99 -20.06 27.99 -14 29 C-14.49650855 25.03675281 -14.49650855 25.03675281 -16.70703125 23.9453125 C-17.74923828 23.53925781 -17.74923828 23.53925781 -18.8125 23.125 C-23.03038907 21.16371944 -25.02795119 19.35494112 -27 15 C-27.7737132 10.43831595 -27.67656875 7.15267269 -25.3125 3.125 C-17.56589808 -3.99349906 -9.59665515 -2.84345338 0 0 Z " fill="#F4F4F4" transform="translate(279,215)"/>
<path d="M0 0 C11.55 0 23.1 0 35 0 C35 3.96 35 7.92 35 12 C31.7 12.33 28.4 12.66 25 13 C24.67 21.91 24.34 30.82 24 40 C19.38 40 14.76 40 10 40 C10 31.09 10 22.18 10 13 C6.7 13 3.4 13 0 13 C0 8.71 0 4.42 0 0 Z " fill="#FBFAFA" transform="translate(284,215)"/>
<path d="M0 0 C4.95 0 9.9 0 15 0 C15 8.91 15 17.82 15 27 C19.29 27 23.58 27 28 27 C28 31.62 28 36.24 28 41 C18.76 41 9.52 41 0 41 C0 27.47 0 13.94 0 0 Z " fill="#F3F3F3" transform="translate(182,215)"/>
<path d="M0 0 C4.62 0 9.24 0 14 0 C14 13.2 14 26.4 14 40 C9.38 40 4.76 40 0 40 C0 26.8 0 13.6 0 0 Z " fill="#F8F8F8" transform="translate(375,215)"/>
<path d="M0 0 C5.54126171 0.11750443 8.69441516 0.55850329 12.6875 4.4375 C12.6875 5.0975 12.6875 5.7575 12.6875 6.4375 C13.22890625 6.6746875 13.7703125 6.911875 14.328125 7.15625 C17.32000137 8.78097757 19.79909399 10.7876877 22.4375 12.9375 C23.42234375 13.7315625 24.4071875 14.525625 25.421875 15.34375 C26.54335937 16.38015625 26.54335937 16.38015625 27.6875 17.4375 C27.6875 18.0975 27.6875 18.7575 27.6875 19.4375 C15.4775 19.4375 3.2675 19.4375 -9.3125 19.4375 C-9.3125 14.1575 -9.3125 8.8775 -9.3125 3.4375 C-5.74901375 -0.12598625 -4.85875873 0.0056041 0 0 Z " fill="#F0F0F0" transform="translate(75.3125,212.5625)"/>
<path d="M0 0 C11.88 0 23.76 0 36 0 C31.90200241 4.78099718 28.54768682 8.47402226 23.8125 12.375 C23.29236328 12.81199219 22.77222656 13.24898438 22.23632812 13.69921875 C18.00275837 17.19204897 14.99065758 18.17256107 9.5625 18.3125 C8.61503906 18.34988281 7.66757813 18.38726562 6.69140625 18.42578125 C4 18 4 18 0 14 C0 9.38 0 4.76 0 0 Z " fill="#F8F8F8" transform="translate(66,246)"/>
<path d="M0 0 C3.73420049 0.88978996 5.54739878 2.60522449 8 5.4765625 C9.52813721 9.65747722 9.28123496 12.67726313 7.8125 16.8515625 C5.21993671 20.60630934 5.21993671 20.60630934 2 21.4765625 C-3.05378304 22.11831273 -3.05378304 22.11831273 -6 21.4765625 C-9.4092985 18.77753452 -10.65330164 17.25836473 -11.4765625 13.02734375 C-11.72860026 8.59015268 -11.42754954 6.14460865 -9 2.3515625 C-5.88040373 0.40181483 -3.69872043 -0.26619579 0 0 Z " fill="#191919" transform="translate(279,276.5234375)"/>
<path d="M0 0 C3.66900829 2.63211465 4.84009531 4.08854326 5.625 8.5625 C5 12 5 12 2.875 14.4375 C-0.53462745 16.29055839 -2.18195263 16.71588388 -6 16 C-9.66900829 13.36788535 -10.84009531 11.91145674 -11.625 7.4375 C-11 4 -11 4 -8.875 1.5625 C-5.46537255 -0.29055839 -3.81804737 -0.71588388 0 0 Z " fill="#1B1A1B" transform="translate(150,230)"/>
<path d="M0 0 C0 0.33 0 0.66 0 1 C-1.65 1 -3.3 1 -5 1 C-5 14.2 -5 27.4 -5 41 C-5.33 41 -5.66 41 -6 41 C-6.33 32.09 -6.66 23.18 -7 14 C-10.63 14 -14.26 14 -18 14 C-18 13.67 -18 13.34 -18 13 C-14.7 13 -11.4 13 -8 13 C-8 9.04 -8 5.08 -8 1 C-19.55 1 -31.1 1 -43 1 C-43 0.67 -43 0.34 -43 0 C-38.16218258 -0.16878778 -33.32418341 -0.32921127 -28.48583984 -0.48217773 C-26.84286193 -0.53526551 -25.19995382 -0.59056478 -23.55712891 -0.64819336 C-21.18407238 -0.73104142 -18.81087146 -0.80570627 -16.4375 -0.87890625 C-15.35106201 -0.91945885 -15.35106201 -0.91945885 -14.24267578 -0.96083069 C-9.38481034 -1.10027071 -4.81035172 -0.70308783 0 0 Z " fill="#525151" transform="translate(327,214)"/>
<path d="M0 0 C1.53102104 0.0001133 1.53102104 0.0001133 3.0929718 0.00022888 C4.72760628 0.00797081 4.72760628 0.00797081 6.39526367 0.01586914 C7.52018723 0.01728409 8.64511078 0.01869904 9.80412292 0.02015686 C13.39052001 0.02574608 16.97685426 0.03829667 20.56323242 0.05102539 C22.99747631 0.05604178 25.43172118 0.06060445 27.8659668 0.06469727 C33.82757671 0.07571199 39.78915008 0.09243945 45.75073242 0.11352539 C46.24573242 2.09352539 46.24573242 2.09352539 46.75073242 4.11352539 C45.76073242 3.78352539 44.77073242 3.45352539 43.75073242 3.11352539 C41.98665114 3.02553068 40.21939476 2.99588282 38.453125 3 C37.37223099 3.00007553 36.29133698 3.00015106 35.1776886 3.00022888 C33.42913826 3.00797081 33.42913826 3.00797081 31.64526367 3.01586914 C30.45092209 3.01728409 29.25658051 3.01869904 28.02604675 3.02015686 C24.20508334 3.0257619 20.38417817 3.03831528 16.56323242 3.05102539 C13.97534264 3.05603974 11.38745195 3.06060276 8.79956055 3.06469727 C2.44993125 3.07573296 -3.89966401 3.09247603 -10.24926758 3.11352539 C-10.24926758 2.45352539 -10.24926758 1.79352539 -10.24926758 1.11352539 C-6.76880661 0.32365522 -3.56605904 -0.00884878 0 0 Z " fill="#434343" transform="translate(117.249267578125,211.886474609375)"/>
<path d="M0 0 C1.423125 -0.061875 2.84625 -0.12375 4.3125 -0.1875 C5.51326172 -0.23970703 5.51326172 -0.23970703 6.73828125 -0.29296875 C9 0 9 0 10.8046875 1.31640625 C12 3 12 3 11.8125 6.125 C11.544375 7.07375 11.27625 8.0225 11 9 C7.57067929 10.71466036 3.78283935 10.05404056 0 10 C0 6.7 0 3.4 0 0 Z " fill="#232323" transform="translate(230,277)"/>
<path d="M0 0 C6.28388747 -0.48337596 6.28388747 -0.48337596 9.5 1.6875 C11 4 11 4 10.875 6.625 C10 9 10 9 8 11 C5.31160615 11.26991906 2.70858064 11.08737357 0 11 C0 7.37 0 3.74 0 0 Z " fill="#222121" transform="translate(193,277)"/>
<path d="M0 0 C0.33 0 0.66 0 1 0 C1.03758423 1.3317627 1.03758423 1.3317627 1.07592773 2.69042969 C1.17121797 5.99296037 1.27044207 9.29532459 1.37231445 12.59765625 C1.41555318 14.02534388 1.45723585 15.45307954 1.49731445 16.88085938 C1.55528602 18.93634496 1.61890175 20.99159128 1.68359375 23.046875 C1.72025146 24.28276367 1.75690918 25.51865234 1.79467773 26.79199219 C1.89011706 29.86478773 1.89011706 29.86478773 2.57836914 32.23144531 C3.26069962 35.09351943 2.03080789 37.33202665 1 40 C0.34 40 -0.32 40 -1 40 C-1.16139646 26.63995943 -0.66509667 13.34261759 0 0 Z " fill="#242323" transform="translate(211,215)"/>
<path d="M0 0 C2 1 2 1 2.6328125 2.84765625 C2.79523438 3.57855469 2.95765625 4.30945313 3.125 5.0625 C3.29257812 5.79597656 3.46015625 6.52945313 3.6328125 7.28515625 C3.75398438 7.85105469 3.87515625 8.41695312 4 9 C1.69 9 -0.62 9 -3 9 C-2.44271087 5.65626525 -1.64826111 2.96687001 0 0 Z " fill="#252526" transform="translate(415,234)"/>
<path d="M0 0 C0 1.32 0 2.64 0 4 C-1.258125 4.04125 -2.51625 4.0825 -3.8125 4.125 C-4.52019531 4.14820313 -5.22789062 4.17140625 -5.95703125 4.1953125 C-8 4 -8 4 -11 2 C-7.17010894 0.19769832 -4.21878192 -0.19622241 0 0 Z " fill="#222222" transform="translate(265,240)"/>
<path d="M0 0 C0.66 0.33 1.32 0.66 2 1 C2 4.96 2 8.92 2 13 C1.67 13 1.34 13 1 13 C1 10.03 1 7.06 1 4 C0.34 4 -0.32 4 -1 4 C-1 6.97 -1 9.94 -1 13 C-1.33 13 -1.66 13 -2 13 C-2.05391993 11.20866022 -2.09275571 9.41686101 -2.125 7.625 C-2.14820313 6.62726563 -2.17140625 5.62953125 -2.1953125 4.6015625 C-2 2 -2 2 0 0 Z " fill="#080808" transform="translate(282,213)"/>
</svg>
